<?xml version="1.0" standalone="no"?>
<!DOCTYPE svg PUBLIC "-//W3C//DTD SVG 20010904//EN"
 "http://www.w3.org/TR/2001/REC-SVG-20010904/DTD/svg10.dtd">
<svg version="1.0" xmlns="http://www.w3.org/2000/svg"
 width="800.000000pt" height="800.000000pt" viewBox="0 0 800.000000 800.000000"
 preserveAspectRatio="xMidYMid meet">

<g transform="translate(0.000000,800.000000) scale(0.100000,-0.100000)"
fill="#000000" stroke="none">
<path d="M0 4000 l0 -4000 4000 0 4000 0 0 4000 0 4000 -4000 0 -4000 0 0
-4000z m5078 2250 c46 -28 72 -76 72 -133 0 -38 -124 -720 -195 -1077 -25
-125 -204 -1071 -231 -1220 -20 -109 -43 -161 -85 -191 l-34 -24 -488 -3
c-438 -2 -491 -1 -523 14 -46 22 -85 74 -90 121 -3 24 18 154 55 342 34 167
61 305 61 307 0 2 72 4 160 4 146 0 160 -2 160 -18 0 -9 -15 -94 -34 -187 -19
-94 -37 -191 -41 -218 l-7 -47 278 2 279 3 17 85 c9 47 28 146 42 220 14 74
41 218 60 320 53 280 243 1290 251 1333 3 21 9 45 12 53 4 12 -72 14 -526 16
l-532 3 118 158 118 157 535 0 c516 0 536 -1 568 -20z m-848 -371 c0 -6 -9
-54 -19 -107 -11 -54 -35 -180 -55 -282 -19 -102 -56 -294 -82 -427 l-47 -243
-158 0 c-121 0 -159 3 -159 13 0 6 24 134 54 282 29 149 59 300 67 338 13 67
13 68 173 252 147 171 162 185 193 185 18 0 33 -5 33 -11z m-2367 -2904 c46
-142 211 -662 287 -904 20 -62 36 -98 40 -90 4 8 51 151 104 319 54 168 127
396 162 508 l66 202 34 0 c32 0 35 -2 29 -22 -9 -30 -115 -366 -170 -538 -24
-74 -71 -223 -105 -330 -105 -332 -122 -382 -126 -378 -2 3 -17 47 -33 99 -16
52 -59 189 -96 304 -119 377 -173 549 -199 635 -15 47 -30 92 -35 100 -12 17
-5 36 -109 -270 -44 -129 -83 -242 -86 -251 -6 -13 -43 -18 -212 -28 -113 -7
-208 -10 -211 -7 -4 3 5 6 18 6 21 0 269 35 326 46 19 4 36 47 138 357 64 193
118 359 121 367 8 22 15 5 57 -125z m3852 21 c107 -45 118 -60 310 -403 l118
-212 51 -5 c28 -3 161 -11 296 -18 148 -7 232 -15 212 -19 -18 -4 -159 -8
-313 -10 l-280 -4 -154 260 c-85 143 -170 276 -190 297 -45 46 -109 68 -201
68 -115 0 -186 -38 -229 -123 -27 -56 -31 -99 -13 -159 20 -68 72 -109 250
-197 189 -93 257 -146 303 -237 28 -55 30 -67 30 -164 -1 -88 -4 -113 -24
-158 -59 -132 -228 -202 -416 -172 -124 20 -225 97 -272 209 l-22 52 32 14
c38 16 43 14 51 -21 10 -40 52 -100 89 -128 106 -81 285 -86 395 -12 69 46
102 116 102 215 0 63 -5 87 -26 129 -37 75 -89 114 -271 202 -230 112 -287
170 -300 304 -13 140 67 254 212 303 54 17 207 11 260 -11z m-2725 -616 l0
-630 -35 0 -35 0 0 630 0 630 35 0 35 0 0 -630z m776 598 c100 -53 148 -138
148 -263 0 -96 -23 -154 -85 -210 -23 -20 -39 -38 -37 -39 1 -1 26 -11 53 -21
149 -54 227 -168 228 -330 0 -151 -72 -262 -212 -329 l-66 -31 -257 -3 -258
-3 0 631 0 631 218 -3 c214 -3 218 -3 268 -30z m1244 2 l0 -30 -267 -2 -268
-3 0 -230 0 -230 268 -3 267 -2 0 -40 0 -40 -270 0 -270 0 0 -290 0 -290 270
0 270 0 0 -35 0 -35 -305 0 -305 0 0 630 0 630 305 0 305 0 0 -30z"/>
<path d="M3350 2716 l0 -236 151 0 c85 0 169 5 190 11 152 46 209 252 103 369
-65 71 -107 84 -286 88 l-158 4 0 -236z"/>
<path d="M3350 2116 l0 -296 198 0 c232 0 276 9 354 73 75 62 103 122 103 222
0 69 -4 87 -30 133 -32 60 -80 101 -152 135 -44 20 -66 22 -260 25 l-213 3 0
-295z"/>
</g>
</svg>
